<?xml version="1.0" standalone="no"?>
<!DOCTYPE svg PUBLIC "-//W3C//DTD SVG 20010904//EN"
 "http://www.w3.org/TR/2001/REC-SVG-20010904/DTD/svg10.dtd">
<svg version="1.0" xmlns="http://www.w3.org/2000/svg"
 width="1254.000000pt" height="1254.000000pt" viewBox="0 0 1254.000000 1254.000000"
 preserveAspectRatio="xMidYMid meet">
<metadata>
Created by potrace 1.16, written by Peter Selinger 2001-2019
</metadata>
<g transform="translate(0.000000,1254.000000) scale(0.100000,-0.100000)"
fill="#A14D27" stroke="none">
<path d="M4399 9839 c-6 -12 -17 -85 -25 -163 -33 -336 -45 -443 -52 -471 -9
-32 -8 -32 -205 -125 -86 -40 -122 -64 -180 -119 -93 -89 -130 -152 -184 -314
-25 -73 -53 -146 -64 -164 -11 -17 -71 -77 -133 -132 -140 -123 -164 -164
-148 -246 24 -118 152 -317 249 -388 77 -56 140 -83 280 -120 214 -57 281
-108 291 -221 6 -69 -14 -143 -99 -363 -110 -288 -146 -445 -156 -678 -14
-348 41 -555 277 -1039 169 -349 233 -515 285 -746 90 -395 73 -912 -41 -1321
l-16 -57 -67 -10 c-90 -13 -153 -45 -206 -104 -60 -67 -86 -140 -93 -261 l-5
-97 345 0 c290 0 347 2 358 15 57 68 252 580 370 973 l44 143 54 -3 55 -3 19
-70 c27 -101 118 -278 187 -365 57 -70 61 -79 61 -127 l0 -52 -57 -6 c-83 -10
-130 -23 -193 -55 -140 -71 -210 -202 -210 -392 l0 -58 1089 0 c926 0 1108 2
1208 15 628 83 1101 399 1374 919 252 480 276 1138 62 1736 -68 192 -197 445
-322 632 -112 167 -206 288 -404 521 -132 155 -189 229 -269 345 -53 78 -58
91 -58 139 l0 53 50 0 c46 0 53 3 87 41 46 51 113 96 273 183 175 96 288 175
389 275 245 239 359 522 426 1056 36 288 99 1011 89 1027 -32 51 -656 -147
-994 -316 -511 -255 -809 -561 -945 -969 -50 -150 -68 -267 -68 -442 0 -173
12 -269 55 -439 37 -148 96 -302 176 -461 108 -216 185 -335 447 -695 176
-241 244 -343 330 -493 126 -220 211 -444 261 -688 26 -124 28 -151 28 -369 0
-207 -3 -248 -22 -340 -71 -326 -199 -573 -392 -751 l-84 -79 -58 0 -58 0 0
46 c0 25 11 84 25 132 49 171 67 310 72 557 4 174 1 264 -11 368 -69 598 -305
1084 -719 1483 -194 188 -385 321 -806 564 -295 171 -453 312 -545 489 -71
139 -92 239 -101 486 -21 602 -138 927 -449 1253 -56 59 -133 157 -194 247
-131 193 -249 340 -368 459 -125 124 -201 176 -260 176 -34 0 -46 -5 -55 -21z
m3381 -2289 l0 -240 -54 0 -53 0 -12 69 c-6 39 -11 115 -11 171 0 56 5 132 11
171 l12 69 53 0 54 0 0 -240z"/>
</g>
</svg>
